<?xml version="1.0" standalone="no"?>
<!DOCTYPE svg PUBLIC "-//W3C//DTD SVG 20010904//EN"
        "http://www.w3.org/TR/2001/REC-SVG-20010904/DTD/svg10.dtd">
<svg version="1.0" xmlns="http://www.w3.org/2000/svg"
     width="512.000000pt" height="512.000000pt" viewBox="0 0 512.000000 512.000000"
     preserveAspectRatio="xMidYMid meet">

    <g transform="translate(0.000000,512.000000) scale(0.100000,-0.100000)"
       fill="#FFFF" stroke="none">
        <path d="M2581 4339 c-158 -28 -420 -144 -509 -226 -172 -159 -225 -224 -295
-361 -163 -317 -167 -714 -9 -1027 72 -144 220 -317 346 -403 41 -29 78 -52
82 -52 4 0 49 -20 100 -45 251 -123 573 -135 862 -33 125 44 167 67 268 150
156 130 240 235 319 401 165 343 147 733 -48 1062 -60 103 -225 278 -322 342
-87 58 -210 118 -295 144 -41 12 -86 29 -99 37 -28 19 -314 27 -400 11z m287
-116 c19 -5 22 -12 22 -57 0 -29 -6 -59 -12 -68 -7 -9 -52 -41 -100 -71 -47
-30 -91 -64 -97 -74 -9 -15 -10 -13 -11 17 0 19 -7 49 -16 65 -9 17 -20 53
-25 80 -4 28 -11 64 -14 82 l-7 32 48 4 c53 5 175 -1 212 -10z m-370 -50 c6
-16 13 -52 16 -81 3 -29 14 -68 26 -86 11 -19 20 -50 20 -70 0 -46 20 -86 60
-120 55 -45 140 -28 140 29 0 33 33 69 98 109 90 54 127 105 139 191 3 25 11
45 18 45 36 0 169 -57 248 -107 l38 -24 -59 -72 c-94 -114 -107 -152 -77 -224
16 -37 8 -63 -20 -63 -24 0 -83 -81 -96 -131 -8 -29 -20 -51 -30 -54 -46 -15
-63 -74 -46 -155 8 -32 4 -40 -44 -95 -68 -80 -89 -126 -89 -201 0 -156 130
-252 263 -195 44 19 97 28 97 17 0 -3 -5 -17 -10 -32 -14 -36 23 -303 56 -402
13 -40 24 -75 24 -78 0 -13 -176 -87 -265 -110 -83 -22 -123 -27 -235 -28 -79
-1 -163 5 -202 13 -38 7 -68 14 -68 16 0 1 18 20 39 43 53 56 93 114 173 257
73 129 84 175 54 234 -23 43 -42 53 -124 70 l-77 16 -5 47 c-11 93 -57 125
-231 164 -131 29 -155 46 -145 103 6 41 25 63 82 96 31 18 49 39 68 78 32 68
51 84 126 107 80 24 124 59 145 114 34 88 10 127 -130 213 -94 58 -133 73
-191 73 l-43 0 6 53 c4 41 1 64 -15 100 -15 34 -17 48 -9 55 35 28 220 109
253 111 6 1 16 -11 22 -26z m-368 -220 c0 -13 -9 -42 -21 -64 -17 -34 -18 -45
-9 -75 6 -18 23 -43 38 -55 24 -19 35 -21 108 -15 79 6 81 5 140 -30 32 -20
73 -45 91 -56 53 -32 27 -59 -89 -92 -72 -20 -113 -55 -144 -121 -14 -29 -37
-58 -53 -68 -72 -42 -121 -125 -121 -204 0 -30 -3 -33 -30 -33 -22 0 -33 6
-41 23 -16 36 -58 55 -135 63 -120 12 -118 9 -111 117 14 215 117 435 281 599
64 64 71 68 83 52 7 -10 13 -28 13 -41z m1341 -25 c285 -288 367 -722 208
-1104 -47 -113 -137 -241 -226 -323 -42 -38 -80 -68 -84 -66 -13 9 -39 124
-54 246 -16 125 -16 128 4 168 25 49 26 79 3 107 -46 58 -140 63 -244 14 -73
-34 -91 -32 -120 12 -40 62 -32 100 42 189 67 81 80 108 80 172 0 50 2 55 25
61 44 11 67 42 59 82 -9 47 11 89 55 116 61 38 81 66 81 115 0 24 -7 57 -15
72 -14 27 -13 31 17 72 35 51 99 119 109 119 5 0 31 -24 60 -52z m-1568 -837
c8 -33 66 -61 126 -61 91 0 110 -36 71 -138 -23 -61 -26 -139 -6 -187 8 -19
37 -64 65 -101 53 -70 62 -104 41 -159 l-10 -26 -47 32 c-155 106 -303 332
-353 539 -29 125 -31 120 44 120 55 0 64 -3 69 -19z m442 -121 c89 -23 105
-33 105 -67 0 -41 27 -92 60 -112 17 -10 58 -24 91 -30 34 -7 63 -18 66 -26 5
-16 -53 -128 -123 -237 -44 -68 -149 -177 -171 -178 -7 0 -28 8 -48 17 -26 12
-34 21 -29 32 27 61 43 123 44 162 0 51 -22 91 -91 166 -46 50 -50 88 -19 171
11 29 20 68 20 87 0 19 4 35 8 35 5 0 44 -9 87 -20z"/>
        <path d="M1622 4225 c-160 -175 -285 -427 -344 -691 -18 -84 -22 -130 -22
-304 0 -174 4 -220 22 -304 104 -467 388 -837 807 -1048 149 -76 364 -134 558
-153 l67 -7 0 -152 0 -153 -127 -6 c-206 -10 -319 -54 -434 -167 -108 -107
-162 -225 -175 -383 l-7 -87 798 0 798 0 -7 78 c-14 166 -64 280 -171 387
-119 119 -228 162 -437 172 l-128 6 0 153 0 153 48 5 c371 43 642 152 904 363
l69 56 -39 40 -40 39 -95 -78 c-210 -174 -437 -275 -705 -314 -107 -16 -391
-7 -487 15 -392 88 -713 318 -918 656 -138 226 -205 494 -194 774 6 158 23
255 72 402 57 171 160 348 279 479 l55 61 -37 36 c-21 21 -41 37 -44 37 -3 0
-33 -29 -66 -65z m1439 -2949 c167 -36 300 -156 350 -317 10 -33 19 -65 19
-70 0 -5 -274 -9 -671 -9 l-672 0 6 41 c9 67 65 168 128 232 61 61 152 111
230 126 76 15 535 12 610 -3z"/>
    </g>
</svg>
